<svg xmlns="http://www.w3.org/2000/svg" viewBox="0 0 64 64">
  <!-- Ikon tab browser: logo petani memikul, garis dipertebal agar terbaca di 16 px. -->
  <rect width="64" height="64" rx="16" fill="#e6b043"/>
  <path d="M5 27 Q32 21.5 59 27" stroke="#0b1d15" stroke-width="4" fill="none" stroke-linecap="round"/>
  <path d="M9.5 27 L7 39 M15.5 27 L18 39 M48.5 27 L46 39 M54.5 27 L57 39" stroke="#0b1d15" stroke-width="2.6" stroke-linecap="round"/>
  <path d="M3 39 H22 L19.4 51 H5.6 Z" fill="#0b1d15"/>
  <path d="M42 39 H61 L58.4 51 H44.6 Z" fill="#0b1d15"/>
  <path d="M21 17.5 L32 7 L43 17.5 C38.5 20 25.5 20 21 17.5 Z" fill="#0b1d15"/>
  <circle cx="32" cy="22" r="4" fill="#0b1d15"/>
  <path d="M26 26.5 H38 L36 42 H28 Z" fill="#0b1d15"/>
  <path d="M29.4 42 L27 57 M34.6 42 L37 57" stroke="#0b1d15" stroke-width="4.4" stroke-linecap="round"/>
</svg>
