<svg xmlns="http://www.w3.org/2000/svg" viewBox="0 0 1280 360" width="1280" height="360" role="img" aria-label="BagiPanen — Tanpa ijon, tanpa tengkulak. Hasil panen dibagi smart contract.">
  <defs>
    <pattern id="rain" width="28" height="28" patternUnits="userSpaceOnUse" patternTransform="rotate(25)">
      <path d="M0 0V28" stroke="#ffffff" stroke-opacity="0.035"/>
    </pattern>
    <radialGradient id="sun" cx="0.92" cy="0" r="0.75"><stop offset="0" stop-color="#e6b043" stop-opacity="0.32"/><stop offset="1" stop-color="#e6b043" stop-opacity="0"/></radialGradient>
    <radialGradient id="leaf" cx="0" cy="1" r="0.7"><stop offset="0" stop-color="#3d855d" stop-opacity="0.45"/><stop offset="1" stop-color="#3d855d" stop-opacity="0"/></radialGradient>
  </defs>
  <rect width="1280" height="360" rx="24" fill="#0b1d15"/>
  <rect width="1280" height="360" rx="24" fill="url(#rain)"/>
  <rect width="1280" height="360" rx="24" fill="url(#sun)"/>
  <rect width="1280" height="360" rx="24" fill="url(#leaf)"/>
  <g transform="translate(96 72)">
    <g transform="scale(1.125)"><rect width="64" height="64" rx="16" fill="#e6b043"/>
<path d="M5 27 Q32 21.5 59 27" stroke="#0b1d15" stroke-width="4" fill="none" stroke-linecap="round"/>
<path d="M9.5 27 L7 39 M15.5 27 L18 39 M48.5 27 L46 39 M54.5 27 L57 39" stroke="#0b1d15" stroke-width="2.6" stroke-linecap="round"/>
<path d="M3 39 H22 L19.4 51 H5.6 Z" fill="#0b1d15"/>
<path d="M42 39 H61 L58.4 51 H44.6 Z" fill="#0b1d15"/>
<path d="M21 17.5 L32 7 L43 17.5 C38.5 20 25.5 20 21 17.5 Z" fill="#0b1d15"/>
<circle cx="32" cy="22" r="4" fill="#0b1d15"/>
<path d="M26 26.5 H38 L36 42 H28 Z" fill="#0b1d15"/>
<path d="M29.4 42 L27 57 M34.6 42 L37 57" stroke="#0b1d15" stroke-width="4.4" stroke-linecap="round"/></g>
    <text x="96" y="52" font-family="Fraunces,Georgia,'Times New Roman',serif" font-size="48" font-weight="700" fill="#fdfbf6">Bagi<tspan fill="#edc56a">Panen</tspan></text>
  </g>
  <text x="96" y="226" font-family="Fraunces,Georgia,'Times New Roman',serif" font-size="42" font-weight="700" fill="#fdfbf6">Tanpa ijon, tanpa tengkulak.</text>
  <text x="96" y="280" font-family="Fraunces,Georgia,'Times New Roman',serif" font-size="42" font-weight="700" font-style="italic" fill="#edc56a">Hasil panen dibagi smart contract.</text>
  <g font-family="'Plus Jakarta Sans','Segoe UI',Helvetica,Arial,sans-serif" font-size="15" font-weight="600" fill="#f4dca0">
    <g transform="translate(818 108)"><rect width="366" height="40" rx="20" fill="#ffffff" fill-opacity="0.06" stroke="#edc56a" stroke-opacity="0.25"/><circle cx="22" cy="20" r="5" fill="#e6b043"/><text x="38" y="25">Escrow per musim tanam · BNB Chain</text></g>
    <g transform="translate(818 160)"><rect width="366" height="40" rx="20" fill="#ffffff" fill-opacity="0.06" stroke="#edc56a" stroke-opacity="0.25"/><circle cx="22" cy="20" r="5" fill="#5fa27b"/><text x="38" y="25">Dua kunci: Agen AI ERC-8004 + koperasi</text></g>
    <g transform="translate(818 212)"><rect width="366" height="40" rx="20" fill="#ffffff" fill-opacity="0.06" stroke="#edc56a" stroke-opacity="0.25"/><circle cx="22" cy="20" r="5" fill="#e6b043"/><text x="38" y="25">Bagi hasil otomatis · Rapor Petani onchain</text></g>
  </g>
</svg>
